<svg width="580" height="515" xmlns="http://www.w3.org/2000/svg">
 <g id="Layer_1">
  <title>Layer 1</title>
  <g transform="rotate(-180 289.999 258)" id="svg_1">
   <path id="svg_2" fill="#fccd27" d="m481.99734,194l-114.29,0l-105.1,-183.94a16.014,16.014 0 0 0 -13.9,-8.06l-65.5,0c-10.63,0 -18.3,10.17 -15.38,20.39l49.03,171.61l-102.86,0l-43.2,-57.6c-3.02,-4.03 -7.77,-6.4 -12.8,-6.4l-39.99,0c-10.41,0 -18.05,9.78 -15.52,19.88l31.51,108.12l-31.51,108.12c-2.53,10.1 5.11,19.88 15.52,19.88l39.99,0c5.04,0 9.78,-2.37 12.8,-6.4l43.2,-57.6l102.86,0l-49.03,171.6c-2.92,10.22 4.75,20.4 15.38,20.4l65.5,0c5.74,0 11.04,-3.08 13.89,-8.06l105.11,-183.94l114.29,0c35.35,0 96,-28.65 96,-64s-60.65,-64 -96,-64z"/>
  </g>
 </g>

</svg>